<svg width="130" height="124" viewBox="0 0 130 124" fill="none" xmlns="http://www.w3.org/2000/svg">
<path d="M65 123.893C100.899 123.893 130 121.799 130 119.216C130 116.633 100.899 114.539 65 114.539C29.1015 114.539 0 116.633 0 119.216C0 121.799 29.1015 123.893 65 123.893Z" fill="#F5F5F5"/>
<path d="M52.911 7.12872C53.4729 14.153 61.588 23.2762 64.1828 26.0363C64.2849 26.1457 64.4084 26.2328 64.5455 26.2925C64.6827 26.3521 64.8307 26.3828 64.9803 26.3828C65.1299 26.3828 65.2779 26.3521 65.415 26.2925C65.5522 26.2328 65.6757 26.1457 65.7778 26.0363C68.3809 23.2762 76.4876 14.1488 77.0496 7.12872C77.0688 6.91318 77.0247 6.69671 76.9227 6.50588C76.8207 6.31505 76.6652 6.15815 76.4752 6.05443L65.5009 0.133406C65.3413 0.0458818 65.1623 0 64.9803 0C64.7983 0 64.6192 0.0458818 64.4597 0.133406L53.4853 6.05443C53.2961 6.15895 53.1412 6.31601 53.0393 6.50664C52.9374 6.69727 52.8928 6.91332 52.911 7.12872Z" fill="#3096F3"/>
<path opacity="0.3" d="M64.1664 23.3755C60.8609 19.6568 56.0678 13.4052 54.9233 8.4304C54.8713 8.19918 54.8946 7.95739 54.9898 7.74034C55.0849 7.52329 55.2469 7.34233 55.4522 7.22388L64.435 2.059C64.6017 1.9637 64.7904 1.91357 64.9824 1.91357C65.1745 1.91357 65.3632 1.9637 65.5299 2.059L74.5127 7.20735C74.7234 7.32824 74.8885 7.51509 74.9826 7.73909C75.0767 7.96309 75.0945 8.21181 75.0333 8.44692C73.8929 13.43 69.1164 19.6568 65.7944 23.392C65.6912 23.5063 65.565 23.5973 65.424 23.6591C65.283 23.7209 65.1306 23.7521 64.9766 23.7505C64.8227 23.749 64.6709 23.7147 64.5312 23.6501C64.3915 23.5854 64.2672 23.4918 64.1664 23.3755Z" fill="#3096F3"/>
<path opacity="0.3" d="M64.1664 23.3755C60.8609 19.6568 56.0678 13.4052 54.9233 8.4304C54.8713 8.19918 54.8946 7.95739 54.9898 7.74034C55.0849 7.52329 55.2469 7.34233 55.4522 7.22388L64.435 2.059C64.6017 1.9637 64.7904 1.91357 64.9824 1.91357C65.1745 1.91357 65.3632 1.9637 65.5299 2.059L74.5127 7.20735C74.7234 7.32824 74.8885 7.51509 74.9826 7.73909C75.0767 7.96309 75.0945 8.21181 75.0333 8.44692C73.8929 13.43 69.1164 19.6568 65.7944 23.392C65.6912 23.5063 65.565 23.5973 65.424 23.6591C65.283 23.7209 65.1306 23.7521 64.9766 23.7505C64.8227 23.749 64.6709 23.7147 64.5312 23.6501C64.3915 23.5854 64.2672 23.4918 64.1664 23.3755Z" fill="white"/>
<path d="M63.7573 15.8349C63.6759 15.835 63.5953 15.819 63.5201 15.7878C63.4449 15.7566 63.3767 15.7108 63.3193 15.6531L60.2576 12.5789C60.1481 12.4614 60.0885 12.306 60.0913 12.1455C60.0942 11.9849 60.1592 11.8317 60.2728 11.7181C60.3863 11.6046 60.5395 11.5395 60.7001 11.5367C60.8607 11.5339 61.0161 11.5935 61.1336 11.703L63.7573 14.3226L69.9552 8.14539C70.0719 8.03033 70.2292 7.96582 70.3931 7.96582C70.5571 7.96582 70.7144 8.03033 70.8311 8.14539C70.8891 8.20266 70.9351 8.27085 70.9665 8.34604C70.9979 8.42122 71.0141 8.50189 71.0141 8.58337C71.0141 8.66486 70.9979 8.74553 70.9665 8.82071C70.9351 8.89589 70.8891 8.96409 70.8311 9.02135L64.2201 15.6324C64.161 15.6961 64.0894 15.747 64.0098 15.7819C63.9302 15.8167 63.8442 15.8347 63.7573 15.8349Z" fill="white"/>
<path d="M89.7718 32.5488H32.4746C29.7363 32.5488 27.5164 34.7687 27.5164 37.5071V112.666C27.5164 115.405 29.7363 117.625 32.4746 117.625H89.7718C92.5101 117.625 94.73 115.405 94.73 112.666V37.5071C94.73 34.7687 92.5101 32.5488 89.7718 32.5488Z" fill="#263238"/>
<path d="M93.6309 32.5483H36.3338C33.5954 32.5483 31.3755 34.7682 31.3755 37.5066V112.666C31.3755 115.404 33.5954 117.624 36.3338 117.624H93.6309C96.3693 117.624 98.5892 115.404 98.5892 112.666V37.5066C98.5892 34.7682 96.3693 32.5483 93.6309 32.5483Z" fill="#3096F3"/>
<path d="M43.1184 117.628H37.5403C37.3692 117.628 37.2304 117.767 37.2304 117.938V118.835C37.2304 119.006 37.3692 119.145 37.5403 119.145H43.1184C43.2895 119.145 43.4283 119.006 43.4283 118.835V117.938C43.4283 117.767 43.2895 117.628 43.1184 117.628Z" fill="#263238"/>
<path d="M92.4202 117.628H86.8422C86.671 117.628 86.5323 117.767 86.5323 117.938V118.835C86.5323 119.006 86.671 119.145 86.8422 119.145H92.4202C92.5914 119.145 92.7301 119.006 92.7301 118.835V117.938C92.7301 117.767 92.5914 117.628 92.4202 117.628Z" fill="#263238"/>
<path opacity="0.2" d="M93.6309 32.5483H36.3338C33.5954 32.5483 31.3755 34.7682 31.3755 37.5066V112.666C31.3755 115.404 33.5954 117.624 36.3338 117.624H93.6309C96.3693 117.624 98.5892 115.404 98.5892 112.666V37.5066C98.5892 34.7682 96.3693 32.5483 93.6309 32.5483Z" fill="black"/>
<g style="mix-blend-mode:color-dodge" opacity="0.4">
<path d="M86.8794 107.815H43.0813C42.5797 107.814 42.099 107.614 41.7443 107.26C41.3897 106.905 41.1899 106.424 41.1888 105.923V44.2584C41.1888 43.7561 41.3881 43.2743 41.7429 42.9188C42.0976 42.5632 42.579 42.3629 43.0813 42.3618H86.8794C87.3817 42.3629 87.863 42.5632 88.2178 42.9188C88.5726 43.2743 88.7718 43.7561 88.7718 44.2584V105.923C88.7707 106.424 88.571 106.905 88.2164 107.26C87.8617 107.614 87.381 107.814 86.8794 107.815ZM43.0813 42.5684C42.6338 42.5695 42.205 42.748 41.889 43.0648C41.5729 43.3817 41.3954 43.8109 41.3954 44.2584V105.923C41.3954 106.144 41.439 106.363 41.5238 106.568C41.6085 106.773 41.7327 106.958 41.8892 107.115C42.0457 107.271 42.2316 107.396 42.4361 107.48C42.6407 107.565 42.8599 107.609 43.0813 107.609H86.8794C87.3265 107.609 87.7553 107.431 88.0715 107.115C88.3876 106.799 88.5652 106.37 88.5652 105.923V44.2584C88.5652 43.8109 88.3878 43.3817 88.0717 43.0648C87.7557 42.748 87.3269 42.5695 86.8794 42.5684H43.0813Z" fill="#E6E6E6"/>
</g>
<path d="M87.8463 105.923V44.2542C87.8463 43.7225 87.4152 43.2915 86.8835 43.2915H43.0812C42.5495 43.2915 42.1185 43.7225 42.1185 44.2542L42.1185 105.923C42.1185 106.455 42.5495 106.886 43.0812 106.886H86.8835C87.4152 106.886 87.8463 106.455 87.8463 105.923Z" fill="#3096F3"/>
<path opacity="0.1" d="M87.8463 105.923V44.2542C87.8463 43.7225 87.4152 43.2915 86.8835 43.2915H43.0812C42.5495 43.2915 42.1185 43.7225 42.1185 44.2542L42.1185 105.923C42.1185 106.455 42.5495 106.886 43.0812 106.886H86.8835C87.4152 106.886 87.8463 106.455 87.8463 105.923Z" fill="white"/>
<path d="M100.031 50.0884H99.618V53.5757H100.031V50.0884Z" fill="#3096F3"/>
<path d="M100.031 37.5063H99.618V46.4147H100.031V37.5063Z" fill="#3096F3"/>
<path opacity="0.1" d="M64.9803 90.3827C72.7619 90.3827 79.0701 84.0745 79.0701 76.2929C79.0701 68.5113 72.7619 62.2031 64.9803 62.2031C57.1987 62.2031 50.8905 68.5113 50.8905 76.2929C50.8905 84.0745 57.1987 90.3827 64.9803 90.3827Z" fill="black"/>
<path d="M64.9803 55.3686C66.8812 55.3686 68.4221 53.8276 68.4221 51.9267C68.4221 50.0258 66.8812 48.4849 64.9803 48.4849C63.0794 48.4849 61.5384 50.0258 61.5384 51.9267C61.5384 53.8276 63.0794 55.3686 64.9803 55.3686Z" fill="#3096F3"/>
<path opacity="0.6" d="M64.9596 55.3608C66.8605 55.3608 68.4015 53.8198 68.4015 51.9189C68.4015 50.018 66.8605 48.4771 64.9596 48.4771C63.0587 48.4771 61.5178 50.018 61.5178 51.9189C61.5178 53.8198 63.0587 55.3608 64.9596 55.3608Z" fill="white"/>
<path d="M64.9803 54.6456C64.4426 54.6456 63.9169 54.4861 63.4698 54.1874C63.0227 53.8887 62.6743 53.464 62.4685 52.9672C62.2627 52.4704 62.2089 51.9238 62.3138 51.3964C62.4187 50.869 62.6776 50.3846 63.0579 50.0043C63.4381 49.6241 63.9225 49.3652 64.4499 49.2602C64.9773 49.1553 65.524 49.2092 66.0208 49.415C66.5176 49.6207 66.9422 49.9692 67.2409 50.4163C67.5397 50.8634 67.6991 51.3891 67.6991 51.9268C67.698 52.6475 67.4112 53.3384 66.9016 53.8481C66.392 54.3577 65.7011 54.6445 64.9803 54.6456ZM64.9803 49.4146C64.4835 49.4146 63.9978 49.5619 63.5846 49.838C63.1715 50.114 62.8495 50.5064 62.6594 50.9654C62.4692 51.4245 62.4195 51.9296 62.5164 52.4169C62.6133 52.9042 62.8526 53.3519 63.2039 53.7032C63.5553 54.0545 64.0029 54.2938 64.4902 54.3907C64.9775 54.4877 65.4827 54.4379 65.9417 54.2478C66.4007 54.0576 66.7931 53.7356 67.0691 53.3225C67.3452 52.9094 67.4925 52.4237 67.4925 51.9268C67.4914 51.2609 67.2264 50.6225 66.7555 50.1516C66.2846 49.6807 65.6463 49.4157 64.9803 49.4146Z" fill="#3096F3"/>
<path d="M42.0606 51.3896H40.5277C40.1899 51.3896 39.9161 51.6634 39.9161 52.0012V60.3889C39.9161 60.7267 40.1899 61.0005 40.5277 61.0005H42.0606C42.3983 61.0005 42.6721 60.7267 42.6721 60.3889V52.0012C42.6721 51.6634 42.3983 51.3896 42.0606 51.3896Z" fill="#3096F3"/>
<path opacity="0.6" d="M42.0606 51.3896H40.5277C40.1899 51.3896 39.9161 51.6634 39.9161 52.0012V60.3889C39.9161 60.7267 40.1899 61.0005 40.5277 61.0005H42.0606C42.3983 61.0005 42.6721 60.7267 42.6721 60.3889V52.0012C42.6721 51.6634 42.3983 51.3896 42.0606 51.3896Z" fill="white"/>
<path d="M42.0606 89.1758H40.5277C40.1899 89.1758 39.9161 89.4496 39.9161 89.7873V98.1751C39.9161 98.5128 40.1899 98.7866 40.5277 98.7866H42.0606C42.3983 98.7866 42.6721 98.5128 42.6721 98.1751V89.7873C42.6721 89.4496 42.3983 89.1758 42.0606 89.1758Z" fill="#3096F3"/>
<path opacity="0.6" d="M42.0606 89.1758H40.5277C40.1899 89.1758 39.9161 89.4496 39.9161 89.7873V98.1751C39.9161 98.5128 40.1899 98.7866 40.5277 98.7866H42.0606C42.3983 98.7866 42.6721 98.5128 42.6721 98.1751V89.7873C42.6721 89.4496 42.3983 89.1758 42.0606 89.1758Z" fill="white"/>
<path d="M64.9803 89.1801C72.7619 89.1801 79.0701 82.8719 79.0701 75.0903C79.0701 67.3087 72.7619 61.0005 64.9803 61.0005C57.1987 61.0005 50.8905 67.3087 50.8905 75.0903C50.8905 82.8719 57.1987 89.1801 64.9803 89.1801Z" fill="#3096F3"/>
<path opacity="0.6" d="M64.9803 89.1801C72.7619 89.1801 79.0701 82.8719 79.0701 75.0903C79.0701 67.3087 72.7619 61.0005 64.9803 61.0005C57.1987 61.0005 50.8905 67.3087 50.8905 75.0903C50.8905 82.8719 57.1987 89.1801 64.9803 89.1801Z" fill="white"/>
<path d="M58.0095 67.5299L57.4252 68.1143L71.9577 82.6468L72.542 82.0624L58.0095 67.5299Z" fill="#3096F3"/>
<path d="M71.9576 67.53L57.4251 82.0625L58.0094 82.6468L72.542 68.1143L71.9576 67.53Z" fill="#3096F3"/>
<path opacity="0.2" d="M71.9098 67.4831L57.3773 82.0156L57.9617 82.6L72.4942 68.0674L71.9098 67.4831Z" fill="black"/>
<path opacity="0.2" d="M57.9646 67.486L57.3803 68.0703L71.9128 82.6028L72.4972 82.0185L57.9646 67.486Z" fill="black"/>
<path d="M64.939 85.7383C62.8231 85.7391 60.7544 85.1124 58.9947 83.9374C57.2349 82.7624 55.8632 81.092 55.0529 79.1374C54.2426 77.1827 54.0301 75.0317 54.4424 72.9563C54.8547 70.8809 55.8732 68.9744 57.3691 67.478C58.865 65.9815 60.7711 64.9622 62.8464 64.5491C64.9216 64.136 67.0727 64.3476 69.0277 65.1572C70.9826 65.9667 72.6536 67.3378 73.8292 69.0971C75.0049 70.8564 75.6324 72.9248 75.6324 75.0408C75.6302 77.8765 74.503 80.5956 72.4982 82.6012C70.4934 84.6067 67.7748 85.735 64.939 85.7383ZM64.939 65.1696C62.9865 65.1688 61.0776 65.7471 59.4538 66.8312C57.8299 67.9154 56.5641 69.4567 55.8163 71.2604C55.0686 73.064 54.8725 75.0489 55.2529 76.964C55.6333 78.8791 56.5731 80.6383 57.9535 82.0192C59.3338 83.4001 61.0927 84.3407 63.0076 84.7219C64.9225 85.1031 66.9075 84.9079 68.7114 84.1609C70.5154 83.4139 72.0573 82.1487 73.1421 80.5253C74.227 78.9019 74.806 76.9933 74.806 75.0408C74.8038 72.4242 73.7637 69.9153 71.9138 68.0647C70.064 66.2141 67.5556 65.1729 64.939 65.1696Z" fill="#3096F3"/>
<path d="M68.1 78.2057C69.8475 76.4582 69.8475 73.6248 68.1 71.8773C66.3524 70.1298 63.5191 70.1298 61.7716 71.8773C60.024 73.6248 60.024 76.4582 61.7716 78.2057C63.5191 79.9532 66.3524 79.9532 68.1 78.2057Z" fill="#3096F3"/>
<path opacity="0.2" d="M64.939 85.7383C62.8231 85.7391 60.7544 85.1124 58.9947 83.9374C57.2349 82.7624 55.8632 81.092 55.0529 79.1374C54.2426 77.1827 54.0301 75.0317 54.4424 72.9563C54.8547 70.8809 55.8732 68.9744 57.3691 67.478C58.865 65.9815 60.7711 64.9622 62.8464 64.5491C64.9216 64.136 67.0727 64.3476 69.0277 65.1572C70.9826 65.9667 72.6536 67.3378 73.8292 69.0971C75.0049 70.8564 75.6324 72.9248 75.6324 75.0408C75.6302 77.8765 74.503 80.5956 72.4982 82.6012C70.4934 84.6067 67.7748 85.735 64.939 85.7383ZM64.939 65.1696C62.9865 65.1688 61.0776 65.7471 59.4538 66.8312C57.8299 67.9154 56.5641 69.4567 55.8163 71.2604C55.0686 73.064 54.8725 75.0489 55.2529 76.964C55.6333 78.8791 56.5731 80.6383 57.9535 82.0192C59.3338 83.4001 61.0927 84.3407 63.0076 84.7219C64.9225 85.1031 66.9075 84.9079 68.7114 84.1609C70.5154 83.4139 72.0573 82.1487 73.1421 80.5253C74.227 78.9019 74.806 76.9933 74.806 75.0408C74.8038 72.4242 73.7637 69.9153 71.9138 68.0647C70.064 66.2141 67.5556 65.1729 64.939 65.1696Z" fill="black"/>
<path opacity="0.2" d="M68.1 78.2057C69.8475 76.4582 69.8475 73.6248 68.1 71.8773C66.3524 70.1298 63.5191 70.1298 61.7716 71.8773C60.024 73.6248 60.024 76.4582 61.7716 78.2057C63.5191 79.9532 66.3524 79.9532 68.1 78.2057Z" fill="black"/>
</svg>
